<svg width="24" height="24" viewBox="0 0 24 24" fill="none" xmlns="http://www.w3.org/2000/svg">
<g opacity="0.5">
<path d="M7.5 4C7.5 3.72386 7.27614 3.5 7 3.5C6.72386 3.5 6.5 3.72386 6.5 4H7H7.5ZM7 12.5H6.5C6.5 12.7761 6.72386 13 7 13V12.5ZM17.8536 12.8536C18.0488 12.6583 18.0488 12.3417 17.8536 12.1464L14.6716 8.96447C14.4763 8.7692 14.1597 8.7692 13.9645 8.96447C13.7692 9.15973 13.7692 9.47631 13.9645 9.67157L16.7929 12.5L13.9645 15.3284C13.7692 15.5237 13.7692 15.8403 13.9645 16.0355C14.1597 16.2308 14.4763 16.2308 14.6716 16.0355L17.8536 12.8536ZM7 4H6.5V12.5H7H7.5V4H7ZM7 12.5V13H17.5V12.5V12H7V12.5Z" fill="white"/>
</g>
</svg>
