<svg width="24" height="24" viewBox="0 0 24 24" fill="none" xmlns="http://www.w3.org/2000/svg">
<path d="M12 4C15.3137 4 18 6.68629 18 10C18 11.4698 17.4701 12.8151 16.5928 13.8584C16.5683 13.9208 16.5396 13.9832 16.501 14.043L12.8398 19.7021C12.4458 20.3111 11.5542 20.3111 11.1602 19.7021L7.49902 14.043C7.46029 13.9831 7.43072 13.9209 7.40625 13.8584C6.52912 12.8152 6 11.4696 6 10C6 6.68629 8.68629 4 12 4ZM12 8C10.8954 8 10 8.89543 10 10C10 11.1046 10.8954 12 12 12C13.1046 12 14 11.1046 14 10C14 8.89543 13.1046 8 12 8Z" fill="white"/>
</svg>
