<svg width="295" height="247" viewBox="0 0 295 247" fill="none" xmlns="http://www.w3.org/2000/svg">
<path d="M281 0C288.732 1.32073e-06 295 6.26801 295 14V123.051C286.716 123.051 280 129.083 280 136.523C280 143.964 286.716 149.996 295 149.996V233C295 240.732 288.732 247 281 247H14C6.26801 247 0 240.732 0 233V149.996C8.28427 149.996 15 143.964 15 136.523C14.9998 129.083 8.28412 123.051 0 123.051V14C0 6.26801 6.26801 1.32878e-07 14 0H281Z" fill="white" fill-opacity="0.1"/>
<line x1="16" y1="136.5" x2="279" y2="136.5" stroke="white" stroke-dasharray="2 2"/>
</svg>
