<svg width="111" height="36" viewBox="0 0 111 36" fill="none" xmlns="http://www.w3.org/2000/svg">
<path d="M93.915 0.25C97.1539 0.25 100.046 0.979124 102.584 2.44336C105.121 3.90704 107.112 5.97334 108.558 8.63574C110.005 11.2868 110.726 14.4019 110.726 17.9717C110.726 21.5416 110.006 24.6643 108.559 27.3311V27.332C107.113 29.979 105.121 32.0373 102.584 33.501C100.046 34.9652 97.1538 35.6943 93.915 35.6943C90.6762 35.6943 87.7841 34.9652 85.2461 33.501C82.709 32.0373 80.7168 29.979 79.2715 27.332V27.3311C77.8243 24.6643 77.1055 21.5416 77.1055 17.9717C77.1055 14.4019 77.824 11.2868 79.2715 8.63574C80.7166 5.97312 82.7089 3.90713 85.2461 2.44336C87.7841 0.979101 90.6762 0.250013 93.915 0.25ZM12.4277 0.921875C15.6114 0.921875 18.0713 1.6164 19.7656 3.04492C21.4675 4.47996 22.3017 6.58242 22.3018 9.30762C22.3018 11.2814 21.8609 12.9782 20.9668 14.3857C20.4656 15.1747 19.8249 15.8293 19.0488 16.3516C20.7419 16.9273 22.0983 17.7941 23.1055 18.9609C24.4658 20.5371 25.1338 22.6245 25.1338 25.1963C25.1337 28.2473 24.1437 30.6647 22.1445 32.416C20.1661 34.1632 17.4528 35.0224 14.0361 35.0225H0.25V0.921875H12.4277ZM34.8896 0.921875V35.0225H28.8213V0.921875H34.8896ZM48.7607 0.921875L48.8311 1.05371L57.0566 16.4307L65.1904 1.05469L65.2607 0.921875H70.2852L70.3145 1.13867L74.8984 34.7383L74.9375 35.0225H68.623L68.5947 34.8037L65.7168 12.0166L57.2783 27.5L57.0596 27.9004L56.8398 27.5L48.332 12.0244L45.4512 34.8037L45.4238 35.0225H39.1084L39.1475 34.7383L43.7549 1.1377L43.7852 0.921875H48.7607ZM93.915 6.15039C91.5844 6.1504 89.6599 6.66978 88.126 7.69238L88.124 7.69336C86.5828 8.7054 85.4212 10.0989 84.6396 11.8809C83.8557 13.6684 83.461 15.6972 83.4609 17.9717C83.4609 20.2464 83.8556 22.2758 84.6396 24.0635C85.4214 25.8459 86.5836 27.2481 88.126 28.2764C89.6598 29.2828 91.5846 29.7939 93.915 29.7939C96.2299 29.7939 98.1473 29.2827 99.6816 28.2754C101.223 27.2472 102.384 25.8454 103.166 24.0635C103.95 22.2757 104.345 20.2465 104.345 17.9717C104.345 15.6971 103.95 13.6685 103.166 11.8809C102.384 10.0988 101.223 8.70542 99.6816 7.69336L99.6807 7.69238C98.1465 6.66959 96.2294 6.15039 93.915 6.15039ZM6.31836 29.5303H13.3164C15.0252 29.5302 16.3596 29.1535 17.3438 28.4268C18.2971 27.7068 18.8018 26.4934 18.8018 24.7158C18.8017 22.8383 18.2712 21.61 17.2803 20.9395C16.2431 20.2379 14.927 19.878 13.3164 19.8779H6.31836V29.5303ZM6.31836 14.4102H11.6357C13.1418 14.4102 14.2741 14.1033 15.0635 13.5225C15.8218 12.9487 16.2344 11.939 16.2344 10.4121C16.2344 8.84887 15.8194 7.83363 15.0635 7.27734C14.2741 6.69658 13.1417 6.38965 11.6357 6.38965H6.31836V14.4102Z" fill="white" stroke="white" stroke-width="0.5"/>
</svg>
