<svg width="24" height="24" viewBox="0 0 24 24" fill="none" xmlns="http://www.w3.org/2000/svg">
<path d="M3.5 11.75C3.08579 11.75 2.75 12.0858 2.75 12.5C2.75 12.9142 3.08579 13.25 3.5 13.25V12.5V11.75ZM22.0303 13.0303C22.3232 12.7374 22.3232 12.2626 22.0303 11.9697L17.2574 7.1967C16.9645 6.90381 16.4896 6.90381 16.1967 7.1967C15.9038 7.48959 15.9038 7.96447 16.1967 8.25736L20.4393 12.5L16.1967 16.7426C15.9038 17.0355 15.9038 17.5104 16.1967 17.8033C16.4896 18.0962 16.9645 18.0962 17.2574 17.8033L22.0303 13.0303ZM3.5 12.5V13.25H21.5V12.5V11.75H3.5V12.5Z" fill="white"/>
</svg>
